<svg xmlns="http://www.w3.org/2000/svg" viewBox="0 0 512 512" role="img" aria-labelledby="title desc">
  <title id="title">Rezi favicon</title>
  <desc id="desc">Icône Rezi sur fond noir.</desc>
  <rect width="512" height="512" rx="108" fill="#000" />
  <g fill="#FF6A00" fill-rule="evenodd" transform="translate(0 4)">
    <rect x="106" y="86" width="88" height="268" rx="16" />
    <path d="M306 92c93.56 0 152 70.17 152 157.18 0 62.44-33.12 109.02-82.47 183.17L306 526l-69.53-93.65C187.12 358.2 154 311.62 154 249.18 154 162.17 212.44 92 306 92Zm0 74c-45.69 0-78 33.5-78 83.18 0 24.84 11.02 50.45 40.33 95.32L306 401.02l37.67-56.52C372.98 299.63 384 274.02 384 249.18 384 199.5 351.69 166 306 166Z" />
    <circle cx="306" cy="250" r="42" fill="#000" />
  </g>
</svg>
