<svg xmlns="http://www.w3.org/2000/svg" viewBox="0 0 32 32">
  <!-- Arc orange extérieur -->
  <path d="M16 3 A10 10 0 0 1 26 13" stroke="#F7931E" stroke-width="2.5" fill="none" stroke-linecap="round"/>
  <path d="M6 13 A10 10 0 0 1 16 3" stroke="#F7931E" stroke-width="2.5" fill="none" stroke-linecap="round"/>
  <!-- Arc gris intérieur -->
  <path d="M16 6 A7 7 0 0 1 23 13" stroke="#6B7280" stroke-width="2" fill="none" stroke-linecap="round"/>
  <path d="M9 13 A7 7 0 0 1 16 6" stroke="#6B7280" stroke-width="2" fill="none" stroke-linecap="round"/>
  <!-- Toit principal gris -->
  <polyline points="5,17 16,8 27,17" stroke="#6B7280" stroke-width="2.2" fill="none" stroke-linejoin="round" stroke-linecap="round"/>
  <!-- Fenêtre orange -->
  <rect x="14.5" y="13.5" width="3" height="3" rx="0.4" fill="#F7931E"/>
  <!-- Toit secondaire -->
  <polyline points="8,21 16,14 24,21" stroke="#6B7280" stroke-width="1.8" fill="none" stroke-linejoin="round" stroke-linecap="round"/>
  <!-- Losanges orange -->
  <rect x="10.5" y="21.5" width="2.5" height="2.5" rx="0.3" fill="#F7931E" transform="rotate(45 11.75 22.75)"/>
  <rect x="19" y="21.5" width="2.5" height="2.5" rx="0.3" fill="#F7931E" transform="rotate(45 20.25 22.75)"/>
  <rect x="15" y="25" width="2" height="2" rx="0.2" fill="#F7931E" transform="rotate(45 16 26)"/>
</svg>
